<?xml version="1.0" standalone="no"?><!DOCTYPE svg PUBLIC "-//W3C//DTD SVG 1.1//EN" "http://www.w3.org/Graphics/SVG/1.1/DTD/svg11.dtd"><svg t="1649651134996" class="icon" viewBox="0 0 1024 1024" version="1.1" xmlns="http://www.w3.org/2000/svg" p-id="17613" xmlns:xlink="http://www.w3.org/1999/xlink" width="200" height="200"><defs><style type="text/css">@font-face { font-family: feedback-iconfont; src: url("//at.alicdn.com/t/font_1031158_u69w8yhxdu.woff2?t=1630033759944") format("woff2"), url("//at.alicdn.com/t/font_1031158_u69w8yhxdu.woff?t=1630033759944") format("woff"), url("//at.alicdn.com/t/font_1031158_u69w8yhxdu.ttf?t=1630033759944") format("truetype"); }
</style></defs><path d="M544 648.256V568.64a64 64 0 1 0-64 0v79.616a64 64 0 1 0 64 0z m-280.704-389.12a256.128 256.128 0 0 1 497.408 0H832a128 128 0 0 1 128 128V832a128 128 0 0 1-128 128H192a128 128 0 0 1-128-128V387.072a128 128 0 0 1 128-128h71.296z m66.56 0h364.288a192.192 192.192 0 0 0-364.288 0z" p-id="17614" fill="#bfcbd9"></path></svg>