<?xml version="1.0" standalone="no"?><!DOCTYPE svg PUBLIC "-//W3C//DTD SVG 1.1//EN" "http://www.w3.org/Graphics/SVG/1.1/DTD/svg11.dtd"><svg t="1649903119897" class="icon" viewBox="0 0 1024 1024" version="1.1" xmlns="http://www.w3.org/2000/svg" p-id="2201" xmlns:xlink="http://www.w3.org/1999/xlink" width="200" height="200"><defs><style type="text/css">@font-face { font-family: feedback-iconfont; src: url("//at.alicdn.com/t/font_1031158_u69w8yhxdu.woff2?t=1630033759944") format("woff2"), url("//at.alicdn.com/t/font_1031158_u69w8yhxdu.woff?t=1630033759944") format("woff"), url("//at.alicdn.com/t/font_1031158_u69w8yhxdu.ttf?t=1630033759944") format("truetype"); }
</style></defs><path d="M608 128c11.39 0 19.014 5.924 22.545 9.455C634.076 140.986 640 148.61 640 160v96c0 11.39-5.924 19.014-9.455 22.545C627.014 282.076 619.39 288 608 288H416c-11.39 0-19.014-5.924-22.545-9.455C389.924 275.014 384 267.39 384 256v-96c0-11.39 5.924-19.014 9.455-22.545C396.986 133.924 404.61 128 416 128h192m0-64H416c-52.8 0-96 43.2-96 96v96c0 52.8 43.2 96 96 96h192c52.8 0 96-43.2 96-96v-96c0-52.8-43.2-96-96-96zM352 736c11.39 0 19.014 5.924 22.545 9.455C378.076 748.986 384 756.61 384 768v96c0 11.39-5.924 19.014-9.455 22.545C371.014 890.076 363.39 896 352 896H160c-11.39 0-19.014-5.924-22.545-9.455C133.924 883.014 128 875.39 128 864v-96c0-11.39 5.924-19.014 9.455-22.545C140.986 741.924 148.61 736 160 736h192m0-64H160c-52.8 0-96 43.2-96 96v96c0 52.8 43.2 96 96 96h192c52.8 0 96-43.2 96-96v-96c0-52.8-43.2-96-96-96zM864 736c11.39 0 19.014 5.924 22.545 9.455C890.076 748.986 896 756.61 896 768v96c0 11.39-5.924 19.014-9.455 22.545C883.014 890.076 875.39 896 864 896H672c-11.39 0-19.014-5.924-22.545-9.455C645.924 883.014 640 875.39 640 864v-96c0-11.39 5.924-19.014 9.455-22.545C652.986 741.924 660.61 736 672 736h192m0-64H672c-52.8 0-96 43.2-96 96v96c0 52.8 43.2 96 96 96h192c52.8 0 96-43.2 96-96v-96c0-52.8-43.2-96-96-96zM768 480H256c-17.6 0-32 14.4-32 32s14.4 32 32 32h512c17.6 0 32-14.4 32-32s-14.4-32-32-32z" p-id="2202" fill="#bfcbd9"></path><path d="M512 320c-17.6 0-32 14.4-32 32v128c0 17.6 14.4 32 32 32s32-14.4 32-32V352c0-17.6-14.4-32-32-32zM256 480c-17.6 0-32 14.4-32 32v160c0 17.6 14.4 32 32 32s32-14.4 32-32V512c0-17.6-14.4-32-32-32zM768 480c-17.6 0-32 14.4-32 32v160c0 17.6 14.4 32 32 32s32-14.4 32-32V512c0-17.6-14.4-32-32-32z" p-id="2203" fill="#bfcbd9"></path></svg>