<?xml version="1.0" standalone="no"?><!DOCTYPE svg PUBLIC "-//W3C//DTD SVG 1.1//EN" "http://www.w3.org/Graphics/SVG/1.1/DTD/svg11.dtd"><svg t="1649651221390" class="icon" viewBox="0 0 1024 1024" version="1.1" xmlns="http://www.w3.org/2000/svg" p-id="18760" xmlns:xlink="http://www.w3.org/1999/xlink" width="200" height="200"><defs><style type="text/css">@font-face { font-family: feedback-iconfont; src: url("//at.alicdn.com/t/font_1031158_u69w8yhxdu.woff2?t=1630033759944") format("woff2"), url("//at.alicdn.com/t/font_1031158_u69w8yhxdu.woff?t=1630033759944") format("woff"), url("//at.alicdn.com/t/font_1031158_u69w8yhxdu.ttf?t=1630033759944") format("truetype"); }
</style></defs><path d="M809.728 156.672c0-21.44-17.76-38.848-39.616-38.848h-99.008v38.848c0 21.472-17.76 38.848-39.616 38.848H294.656A39.232 39.232 0 0 1 255.04 156.672V117.824H136.192c-21.92 0-39.552 17.408-39.552 38.848v738.336c0 21.376 17.664 38.88 39.552 38.88h396.16v77.728H96.64c-43.808 0-79.296-34.88-79.296-77.728V117.824c0-42.88 35.488-77.696 79.296-77.696h158.432C255.072 18.656 272.832 1.28 294.688 1.28h336.8c21.888 0 39.616 17.376 39.616 38.848h138.624c43.744 0 79.232 34.784 79.232 77.696v437.312h-79.232V156.672z" p-id="18761" fill="#bfcbd9"></path><path d="M631.456 428.672H274.88a19.648 19.648 0 0 1-19.84-19.424v-19.424c0-10.72 8.864-19.424 19.84-19.424h356.576c10.88 0 19.776 8.704 19.776 19.424v19.424a19.584 19.584 0 0 1-19.776 19.424zM651.264 622.976a19.584 19.584 0 0 1-19.776 19.424H274.88a19.616 19.616 0 0 1-19.84-19.424v-19.392c0-10.752 8.864-19.424 19.84-19.424h356.576c10.88 0 19.776 8.672 19.776 19.424v19.392h0.032zM1006.688 815.744a207.04 207.04 0 0 1-207.072 207.008 207.04 207.04 0 1 1 207.072-207.008z m-211.072-109.408a25.6 25.6 0 0 0-25.536-25.632h-76.832c-14.08 0-25.568 11.52-25.568 25.632v76.768a25.6 25.6 0 0 0 25.568 25.632h76.832a25.568 25.568 0 0 0 25.536-25.632v-76.768z m136 0a25.664 25.664 0 0 0-25.632-25.632h-76.704a25.728 25.728 0 0 0-25.664 25.632v76.768c0 14.144 11.52 25.632 25.664 25.632h76.704a25.6 25.6 0 0 0 25.632-25.632v-76.768z m0 140a25.6 25.6 0 0 0-25.632-25.632h-76.704a25.664 25.664 0 0 0-25.664 25.632v76.768c0 14.112 11.52 25.632 25.664 25.632h76.704a25.632 25.632 0 0 0 25.632-25.632v-76.768z m-136 0a25.568 25.568 0 0 0-25.536-25.632h-76.832a25.6 25.6 0 0 0-25.568 25.632v76.768c0 14.112 11.456 25.632 25.568 25.632h76.832a25.6 25.6 0 0 0 25.536-25.632v-76.768z" p-id="18762" fill="#bfcbd9"></path><path d="M691.744 751.744h30.848v30.88a8 8 0 1 0 16.064 0v-30.88h30.88a8.064 8.064 0 1 0 0-16.128h-30.88v-30.784a8 8 0 1 0-16.064 0v30.784h-30.848a8.064 8.064 0 0 0 0 16.128z m137.536 0h77.92a8.064 8.064 0 0 0 0-16.128h-77.92a8.128 8.128 0 0 0-8.096 8.064c0 4.448 3.648 8.064 8.096 8.064z m-87.2 131.808l21.856-21.76c3.2-3.2 3.136-8.288-0.064-11.456a8.064 8.064 0 0 0-11.424 0l-21.792 21.888-21.824-21.888a8 8 0 0 0-11.104 0.32 8.096 8.096 0 0 0-0.32 11.168l21.888 21.76-21.888 21.856a8.096 8.096 0 0 0 0 11.36c3.2 3.2 8.32 3.2 11.456 0l21.76-21.792 21.888 21.792a7.744 7.744 0 0 0 7.776 2.048 8.064 8.064 0 0 0 5.728-5.632 8.224 8.224 0 0 0-2.08-7.808l-21.856-21.856z m87.2 8.064h77.92c4.352 0 8-3.552 8-8.064a8.096 8.096 0 0 0-8-8.064h-77.92a8.064 8.064 0 1 0 0 16.128zM859.552 852.032a8.064 8.064 0 0 0 16.128 0 8.128 8.128 0 0 0-8.064-8.128 8.128 8.128 0 0 0-8.064 8.128M859.552 911.136c0 4.416 3.584 8 8.064 8a8.032 8.032 0 0 0 8.064-8 8.096 8.096 0 0 0-8.064-8.128 8.096 8.096 0 0 0-8.064 8.128" p-id="18763" fill="#bfcbd9"></path></svg>