<?xml version="1.0" standalone="no"?><!DOCTYPE svg PUBLIC "-//W3C//DTD SVG 1.1//EN" "http://www.w3.org/Graphics/SVG/1.1/DTD/svg11.dtd"><svg t="1649649152747" class="icon" viewBox="0 0 1024 1024" version="1.1" xmlns="http://www.w3.org/2000/svg" p-id="6094" xmlns:xlink="http://www.w3.org/1999/xlink" width="200" height="200"><defs><style type="text/css">@font-face { font-family: feedback-iconfont; src: url("//at.alicdn.com/t/font_1031158_u69w8yhxdu.woff2?t=1630033759944") format("woff2"), url("//at.alicdn.com/t/font_1031158_u69w8yhxdu.woff?t=1630033759944") format("woff"), url("//at.alicdn.com/t/font_1031158_u69w8yhxdu.ttf?t=1630033759944") format("truetype"); }
</style></defs><path d="M320.1024 12.4928c37.31456-40.96 103.79264 32.5632 164.82304 25.1904 43.008-6.38976 132.01408-42.5984 173.01504-34.32448 30.84288 6.22592-19.2512 148.19328-94.28992 211.23072C846.4384 331.03872 1259.43808 1042.8416 434.5856 982.6304-161.3824 939.13088 180.30592 339.31264 423.40352 219.83232 341.85216 167.03488 289.792 45.8752 320.14336 12.4928z m198.32832 381.62432a24.45312 24.45312 0 0 0-26.2144 3.8912 24.41216 24.41216 0 0 0-8.192 18.14528v26.8288c-23.7568 3.35872-47.5136 12.53376-65.37216 28.99968a82.7392 82.7392 0 0 0-27.15648 62.464c0.04096 11.91936 2.21184 23.9616 7.45472 34.73408 4.95616 10.24 12.53376 18.8416 21.46304 25.8048 18.432 14.29504 41.3696 21.7088 63.61088 27.48416v96.01024a72.21248 72.21248 0 0 1-30.84288-16.83456 61.8496 61.8496 0 0 1-10.6496-13.63968 54.0672 54.0672 0 0 1-3.72736-7.94624c-1.06496-2.78528-1.67936-5.65248-2.62144-8.43776a24.45312 24.45312 0 0 0-20.8896-16.54784 24.28928 24.28928 0 0 0-26.29632 26.624c0.32768 2.78528 1.14688 5.5296 1.96608 8.192a106.98752 106.98752 0 0 0 21.2992 38.99392c15.44192 18.06336 36.57728 30.3104 59.35104 36.53632 4.096 1.10592 8.23296 2.048 12.41088 2.8672v28.2624c0 9.33888 5.61152 18.10432 14.1312 21.99552 8.64256 4.01408 19.08736 2.4576 26.2144-3.85024a24.41216 24.41216 0 0 0 8.192-18.18624v-25.8048c24.3712-2.00704 48.90624-9.0112 68.44416-24.20736 18.55488-14.336 30.9248-35.51232 33.46432-58.90048a86.54848 86.54848 0 0 0-9.78944-51.69152c0.4096 0.73728 0.8192 1.47456 1.2288 2.048l-1.26976-2.17088-0.73728-1.2288 0.65536 1.10592c-9.8304-17.2032-26.13248-28.75392-43.8272-36.74112l-6.71744-2.8672a308.0192 308.0192 0 0 0-41.45152-12.288V491.9296c11.79648 2.048 23.552 5.81632 33.30048 12.98432a46.2848 46.2848 0 0 1 15.40096 19.6608c1.06496 2.6624 1.55648 5.44768 2.58048 8.11008 3.39968 8.92928 12.04224 15.1552 21.58592 15.5648a24.28928 24.28928 0 0 0 25.06752-27.81184 88.8832 88.8832 0 0 0-5.7344-17.53088 92.5696 92.5696 0 0 0-19.37408-27.8528c-17.12128-16.87552-39.97696-26.54208-63.36512-30.76096a176.70144 176.70144 0 0 0-9.46176-1.4336v-26.70592a24.49408 24.49408 0 0 0-14.1312-22.03648z m14.1312 239.69792c11.38688 2.99008 22.85568 6.30784 33.34144 11.75552 4.79232 2.49856 9.46176 5.5296 13.14816 9.58464a27.68896 27.68896 0 0 1 6.5536 13.27104 40.30464 40.30464 0 0 1-3.64544 27.56608l-3.2768 4.83328c-10.6496 13.68064-29.4912 19.33312-46.12096 21.17632z m-48.5376-141.59872v79.872a195.09248 195.09248 0 0 1-15.44192-5.40672 83.39456 83.39456 0 0 1-15.85152-8.192 27.48416 27.48416 0 0 1-10.6496-11.71456 37.19168 37.19168 0 0 1 3.80928-32.68608c8.47872-12.36992 23.9616-18.8416 38.13376-21.87264z" p-id="6095"></path></svg>